<?xml version="1.0" standalone="no"?>
<!DOCTYPE svg PUBLIC "-//W3C//DTD SVG 20010904//EN"
 "http://www.w3.org/TR/2001/REC-SVG-20010904/DTD/svg10.dtd">
<svg version="1.0" xmlns="http://www.w3.org/2000/svg"
 width="700.000000pt" height="700.000000pt" viewBox="0 0 700.000000 700.000000"
 preserveAspectRatio="xMidYMid meet">
<metadata>
Created by potrace 1.14, written by Peter Selinger 2001-2017
</metadata>
<g transform="translate(0.000000,700.000000) scale(0.100000,-0.100000)"
fill="#000000" stroke="none">
<path d="M1901 6234 c-40 -17 -62 -65 -50 -108 5 -17 38 -60 74 -96 36 -36 65
-69 65 -73 0 -3 -31 -39 -70 -78 -66 -68 -75 -86 -70 -134 3 -34 50 -75 85
-75 37 0 63 17 139 94 48 48 61 56 70 45 6 -8 41 -42 78 -76 72 -69 111 -80
154 -45 35 28 42 51 35 113 0 6 -33 44 -73 85 l-71 74 49 48 c108 105 121 135
88 192 -18 29 -63 48 -102 42 -12 -2 -53 -35 -91 -73 -38 -38 -73 -69 -77 -69
-5 0 -38 29 -74 65 -74 74 -110 89 -159 69z"/>
<path d="M4712 6234 c-44 -18 -66 -56 -58 -99 5 -26 26 -55 78 -107 l70 -70
-65 -67 c-36 -36 -70 -77 -77 -90 -29 -57 21 -131 90 -131 27 0 46 13 109 75
l77 75 65 -64 c98 -96 133 -107 188 -60 24 20 31 34 31 63 0 43 -10 59 -89
137 l-60 60 69 69 c82 81 99 119 75 165 -21 40 -67 61 -109 49 -17 -5 -61 -40
-99 -77 l-68 -68 -74 72 c-80 77 -106 88 -153 68z"/>
<path d="M843 5518 c-52 -14 -63 -41 -66 -159 l-2 -104 -85 -1 c-47 -1 -95 -2
-107 -3 -26 -1 -73 -45 -74 -69 -3 -44 4 -69 27 -92 22 -23 32 -25 122 -27 53
-1 102 -2 108 -2 8 -1 12 -33 11 -102 0 -85 3 -104 20 -127 26 -35 83 -51 119
-32 42 23 54 59 54 165 0 69 3 95 13 96 6 0 46 1 87 0 41 0 89 4 107 10 55 17
78 76 52 133 -19 41 -58 52 -164 50 l-95 -2 0 104 c0 99 -1 105 -27 134 -32
35 -54 41 -100 28z"/>
<path d="M6103 5523 c-12 -2 -34 -18 -48 -34 -23 -28 -25 -38 -25 -133 l0
-102 -92 1 c-51 0 -105 -3 -119 -8 -38 -12 -64 -64 -55 -110 11 -57 42 -72
156 -74 52 -1 98 -2 103 -2 4 -1 7 -44 7 -96 0 -110 13 -145 60 -165 40 -17
87 -3 113 32 17 23 20 42 19 122 0 54 4 98 10 102 5 3 55 7 110 8 96 2 102 3
124 30 34 39 33 99 -2 131 -28 26 -31 27 -159 29 l-80 1 -3 103 c-2 115 -14
144 -64 161 -17 6 -31 10 -32 10 -1 -1 -11 -4 -23 -6z"/>
<path d="M1806 5105 c-15 -8 -1231 -1219 -1304 -1299 -2 -2 -3 -23 -4 -46 l0
-43 1468 -1469 c808 -808 1481 -1476 1495 -1483 28 -15 55 -14 86 4 10 5 676
668 1481 1474 1535 1535 1494 1492 1472 1553 -6 15 -1099 1116 -1274 1284
l-37 35 -1681 1 c-1245 0 -1686 -3 -1702 -11z m1520 -188 c3 -3 -324 -584
-444 -787 -12 -19 -40 -70 -64 -112 -24 -43 -45 -78 -48 -78 -3 0 -113 147
-245 326 -132 178 -248 335 -257 347 -10 12 -64 85 -122 162 l-104 140 47 5
c57 6 1231 4 1237 -3z m1599 1 c2 -1 -34 -52 -80 -113 -140 -186 -579 -778
-605 -815 -36 -52 -41 -52 -65 -7 -18 35 -108 199 -223 407 -25 46 -35 64
-166 304 -42 76 -76 141 -76 143 0 2 -11 21 -25 43 -21 33 -22 39 -8 42 22 4
1244 1 1248 -4z m1245 -1058 c0 -6 -1779 -5 -1784 1 -2 2 110 155 248 340 138
186 309 416 381 513 l130 176 512 -512 c282 -282 513 -515 513 -518z m-4184
809 c82 -110 183 -246 225 -302 42 -56 144 -193 227 -304 130 -174 148 -203
129 -204 -12 0 -410 -1 -884 -2 l-863 -2 507 508 c280 279 509 507 509 507 1
0 69 -90 150 -201z m1557 70 c19 -36 87 -160 150 -275 63 -115 128 -234 144
-264 64 -118 108 -198 145 -264 21 -38 36 -71 33 -74 -3 -3 -244 -6 -535 -6
-466 -1 -530 1 -524 14 3 8 80 145 171 305 91 159 174 304 183 320 10 17 48
84 86 150 38 67 75 133 83 148 17 32 18 31 64 -54z m-806 -1199 c18 -69 34
-136 37 -150 3 -14 21 -90 41 -170 20 -80 38 -152 40 -160 2 -8 22 -89 45
-180 23 -91 43 -172 45 -180 1 -8 62 -253 135 -545 72 -291 133 -537 135 -545
2 -8 26 -109 54 -223 28 -114 51 -211 51 -214 0 -4 -560 553 -1245 1237 -685
685 -1245 1247 -1245 1250 0 3 422 5 937 5 l938 0 32 -125z m1318 118 c7 -7
-2 -54 -65 -314 -21 -88 -41 -171 -43 -185 -3 -13 -10 -42 -15 -64 -16 -62
-52 -208 -56 -230 -2 -11 -27 -119 -56 -240 -28 -121 -53 -227 -55 -235 -2 -8
-27 -112 -55 -230 -29 -118 -54 -226 -57 -240 -2 -14 -13 -59 -23 -100 -11
-41 -37 -154 -60 -250 -57 -251 -67 -290 -72 -295 -3 -4 -178 690 -240 950
-10 44 -20 87 -22 95 -10 34 -108 436 -111 450 -2 8 -13 53 -25 100 -12 47
-23 92 -25 100 -2 8 -40 161 -84 339 -45 178 -81 331 -81 340 0 15 51 16 569
16 313 0 572 -3 576 -7z m2115 2 c0 -3 -562 -567 -1250 -1255 l-1249 -1249 14
59 c39 167 166 704 200 845 2 8 8 38 15 65 6 28 22 95 35 150 23 97 111 470
120 510 2 11 9 40 16 65 6 25 12 52 14 60 2 8 24 103 50 210 25 107 48 206 51
220 9 47 75 313 79 319 4 8 1905 8 1905 1z"/>
</g>
</svg>
